# xmcd CD database file
#
# Track frame offsets:
#	150
#	34177
#	66432
#	91972
#	119557
#	156027
#
# Disc length: 2495 seconds
#
# Revision: 0
# Processed by: cddbd v1.5PL3 Copyright (c) Steve Scherf et al.
# Submitted via: CDex 1.60beta1
#
DISCID=4d09bd06
DTITLE=Kenny Davern - Stretchin' Out
DYEAR=1983
DGENRE=Jazz
TTITLE0=The Man I Love
TTITLE1=Summertime
TTITLE2=Lover, Come Back to Me
TTITLE3=Love Me or Leave Me
TTITLE4=There Is No Greater Love
TTITLE5=Chicago Rhythm
EXTD=YEAR: 1983
EXTT0=
EXTT1=
EXTT2=
EXTT3=
EXTT4=
EXTT5=
PLAYORDER=
